<svg xmlns="http://www.w3.org/2000/svg" width="1200" height="1160" viewBox="0 0 1200 1160" role="img" aria-labelledby="title description">
  <title id="title">Salesforce Files Bulk Downloader execution architecture</title>
  <desc id="description">A top-to-bottom workflow showing input normalization, API preflight, metadata retrieval, browser download, validation, atomic workbook updates, and retry or failure handling.</desc>

  <defs>
    <style>
      .title { font: 700 32px "Segoe UI", Arial, sans-serif; fill: #172033; }
      .subtitle { font: 16px "Segoe UI", Arial, sans-serif; fill: #475569; }
      .section { font: 700 15px "Segoe UI", Arial, sans-serif; fill: #475569; letter-spacing: 1.5px; }
      .heading { font: 700 21px "Segoe UI", Arial, sans-serif; fill: #172033; }
      .decision { font: 700 15px "Segoe UI", Arial, sans-serif; fill: #172033; }
      .body { font: 16px "Segoe UI", Arial, sans-serif; fill: #334155; }
      .small { font: 14px "Segoe UI", Arial, sans-serif; fill: #475569; }
      .step { font: 700 13px "Segoe UI", Arial, sans-serif; fill: #ffffff; }
      .label { font: 700 14px "Segoe UI", Arial, sans-serif; fill: #334155; }
      .retry-note { font: 700 13px "Segoe UI", Arial, sans-serif; fill: #9a4d08; }
      .panel { fill: #ffffff; stroke: #d6e0eb; stroke-width: 2; }
      .box { stroke: #52647a; stroke-width: 2; }
      .flow { fill: none; stroke: #52647a; stroke-width: 3; stroke-linecap: round; stroke-linejoin: round; marker-end: url(#arrow); }
      .retry { fill: none; stroke: #b95f0b; stroke-width: 3; stroke-linecap: round; stroke-linejoin: round; marker-end: url(#arrow-orange); }
    </style>
    <filter id="shadow" x="-10%" y="-10%" width="120%" height="130%">
      <feDropShadow dx="0" dy="3" stdDeviation="4" flood-color="#64748b" flood-opacity="0.14"/>
    </filter>
    <marker id="arrow" markerWidth="12" markerHeight="12" refX="9" refY="5" orient="auto" markerUnits="userSpaceOnUse">
      <path d="M0 0 L9 5 L0 10 Z" fill="#52647a"/>
    </marker>
    <marker id="arrow-orange" markerWidth="12" markerHeight="12" refX="9" refY="5" orient="auto" markerUnits="userSpaceOnUse">
      <path d="M0 0 L9 5 L0 10 Z" fill="#b95f0b"/>
    </marker>
  </defs>

  <rect width="1200" height="1160" fill="#f6f8fb"/>
  <text x="600" y="48" text-anchor="middle" class="title">Salesforce Files Bulk Downloader — Execution Architecture</text>
  <text x="600" y="76" text-anchor="middle" class="subtitle">Capacity-aware extraction with validated binaries and consistent migration outputs</text>

  <!-- Shared context -->
  <rect x="45" y="105" width="1110" height="130" rx="18" class="panel"/>
  <text x="70" y="136" class="section">SHARED RUNTIME CONTEXT</text>

  <rect x="70" y="158" width="320" height="55" rx="11" class="box" fill="#ede9fe"/>
  <text x="230" y="181" text-anchor="middle" class="heading">Salesforce CLI</text>
  <text x="230" y="202" text-anchor="middle" class="small">Org context, authentication, and daily limits</text>

  <rect x="440" y="158" width="320" height="55" rx="11" class="box" fill="#e0f2fe"/>
  <text x="600" y="181" text-anchor="middle" class="heading">Salesforce REST API</text>
  <text x="600" y="202" text-anchor="middle" class="small">Document metadata and visible relationships</text>

  <rect x="810" y="158" width="320" height="55" rx="11" class="box" fill="#dcfce7"/>
  <text x="970" y="181" text-anchor="middle" class="heading">Pabot Isolation</text>
  <text x="970" y="202" text-anchor="middle" class="small">Independent browser, files, workbooks, and reports</text>

  <!-- Primary vertical workflow -->
  <text x="70" y="272" class="section">PRIMARY WORKFLOW</text>

  <rect x="350" y="292" width="500" height="92" rx="15" class="box" fill="#e0f2fe" filter="url(#shadow)"/>
  <circle cx="365" cy="318" r="17" fill="#2563a6"/>
  <text x="365" y="323" text-anchor="middle" class="step">1</text>
  <text x="600" y="321" text-anchor="middle" class="heading">Read, Normalize, and Validate Input</text>
  <text x="600" y="348" text-anchor="middle" class="body">Excel IDs · 15 → 18 character canonicalization</text>
  <text x="600" y="371" text-anchor="middle" class="small">Deduplication · strict Yes / No settings</text>

  <path d="M600 384 V405" class="flow"/>

  <rect x="350" y="410" width="500" height="92" rx="15" class="box" fill="#fef3c7" filter="url(#shadow)"/>
  <circle cx="365" cy="436" r="17" fill="#a16207"/>
  <text x="365" y="441" text-anchor="middle" class="step">2</text>
  <text x="600" y="439" text-anchor="middle" class="heading">Check Salesforce API Capacity</text>
  <text x="600" y="466" text-anchor="middle" class="body">Minimum request estimate · pagination buffer</text>
  <text x="600" y="489" text-anchor="middle" class="small">Required remaining reserve</text>

  <path d="M600 502 V523" class="flow"/>

  <rect x="350" y="528" width="500" height="92" rx="15" class="box" fill="#fff7ed" filter="url(#shadow)"/>
  <circle cx="365" cy="554" r="17" fill="#b95f0b"/>
  <text x="365" y="559" text-anchor="middle" class="step">3</text>
  <text x="600" y="557" text-anchor="middle" class="heading">Retrieve Salesforce Metadata</text>
  <text x="600" y="584" text-anchor="middle" class="body">Batched SOQL · nextRecordsUrl pagination</text>
  <text x="600" y="607" text-anchor="middle" class="small">All visible ContentDocumentLink rows</text>

  <path d="M600 620 V641" class="flow"/>

  <rect x="350" y="646" width="500" height="92" rx="15" class="box" fill="#e0f2fe" filter="url(#shadow)"/>
  <circle cx="365" cy="672" r="17" fill="#2563a6"/>
  <text x="365" y="677" text-anchor="middle" class="step">4</text>
  <text x="600" y="675" text-anchor="middle" class="heading">Download Through Authenticated Chrome</text>
  <text x="600" y="702" text-anchor="middle" class="body">Salesforce Shepherd · isolated directory</text>
  <text x="600" y="725" text-anchor="middle" class="small">Fresh full-file transfer</text>

  <path d="M600 738 V759" class="flow"/>

  <rect x="350" y="764" width="500" height="110" rx="15" class="box" fill="#dcfce7" filter="url(#shadow)"/>
  <circle cx="365" cy="790" r="17" fill="#16755b"/>
  <text x="365" y="795" text-anchor="middle" class="step">5</text>
  <text x="600" y="793" text-anchor="middle" class="heading">Validate, Move, and Commit</text>
  <text x="600" y="820" text-anchor="middle" class="body">Completion · stable size · ContentSize match</text>
  <text x="600" y="843" text-anchor="middle" class="small">Atomic workbook transaction · cleanup on commit failure</text>

  <path d="M600 874 V895" class="flow"/>

  <!-- Outcome decisions -->
  <polygon points="600,897 730,943 600,989 470,943" fill="#fff7ed" stroke="#b95f0b" stroke-width="2.5" filter="url(#shadow)"/>
  <text x="600" y="949" text-anchor="middle" class="decision">Successful?</text>

  <rect x="65" y="900" width="300" height="86" rx="15" class="box" fill="#ecfdf5" filter="url(#shadow)"/>
  <text x="215" y="930" text-anchor="middle" class="heading">Migration Outputs</text>
  <text x="215" y="956" text-anchor="middle" class="body">Validated file</text>
  <text x="215" y="978" text-anchor="middle" class="small">Migration-ready workbook rows</text>

  <path d="M470 943 H365" class="flow"/>
  <rect x="397" y="917" width="48" height="24" rx="12" fill="#ffffff"/>
  <text x="421" y="934" text-anchor="middle" class="label">YES</text>

  <path d="M600 989 V1016" class="retry"/>
  <rect x="612" y="995" width="42" height="22" rx="11" fill="#ffffff"/>
  <text x="633" y="1011" text-anchor="middle" class="label">NO</text>

  <polygon points="600,1018 730,1064 600,1110 470,1064" fill="#fff7ed" stroke="#b95f0b" stroke-width="2.5" filter="url(#shadow)"/>
  <text x="600" y="1059" text-anchor="middle" class="decision">Retry eligible and</text>
  <text x="600" y="1080" text-anchor="middle" class="decision">attempts remain?</text>

  <rect x="65" y="1024" width="300" height="80" rx="15" class="box" fill="#fee2e2" filter="url(#shadow)"/>
  <text x="215" y="1052" text-anchor="middle" class="heading">Failed-ID Workbook</text>
  <text x="215" y="1078" text-anchor="middle" class="small">Invalid, missing, or retry-exhausted IDs</text>

  <path d="M470 1064 H365" class="flow"/>
  <rect x="405" y="1038" width="42" height="24" rx="12" fill="#ffffff"/>
  <text x="426" y="1055" text-anchor="middle" class="label">NO</text>

  <rect x="835" y="1024" width="300" height="80" rx="15" class="box" fill="#ffedd5" filter="url(#shadow)"/>
  <text x="985" y="1054" text-anchor="middle" class="heading">Configurable Retry</text>
  <text x="985" y="1078" text-anchor="middle" class="body">Fresh full-file attempt</text>
  <text x="985" y="1097" text-anchor="middle" class="small">Bounded count and delay</text>

  <path d="M730 1064 H835" class="retry"/>
  <rect x="750" y="1038" width="48" height="24" rx="12" fill="#ffffff"/>
  <text x="774" y="1055" text-anchor="middle" class="label">YES</text>

  <path d="M1135 1064 H1170 V690 H850" class="retry"/>
  <text x="1148" y="855" text-anchor="middle" class="retry-note" transform="rotate(-90 1148 855)">Fresh browser download attempt</text>

</svg>
